#tb 0: 1/25
0,          2,          2,        1,   518400, 0x4073cc0b
0,          4,          4,        1,   518400, 0x5f599a48
0,          6,          6,        1,   518400, 0xc6fe555a
0,          8,          8,        1,   518400, 0xe63ac345
0,         10,         10,        1,   518400, 0x9b4f0c5c
0,         12,         12,        1,   518400, 0x98aaba2d
0,         14,         14,        1,   518400, 0xd629bd09
0,         16,         16,        1,   518400, 0xe9796c37
0,         18,         18,        1,   518400, 0xba54d16e
0,         20,         20,        1,   518400, 0xe396c3eb
0,         22,         22,        1,   518400, 0x63ee4b81
0,         24,         24,        1,   518400, 0x68ac6986
0,         25,         25,        1,   518400, 0xe0d53000
